<svg width="218" height="57" viewBox="0 0 218 57" fill="none" xmlns="http://www.w3.org/2000/svg">
  <path d="M76.6284 32.2919V16.6162H80.6356V32.2919H76.6284Z" fill="#304295" />
  <path
    d="M92.4999 32.2919L86.8427 22.9649V32.2919H83.0713V16.6162H87.3141L92.3427 25.3946V16.6162H96.1141V32.2919H92.4999Z"
    fill="#304295" />
  <path
    d="M112.85 26.8838C112.221 30.4108 109.628 32.8405 105.936 32.8405C101.693 32.8405 98.5498 30.0189 98.5498 24.6892C98.5498 19.3595 101.378 16.1459 106.014 16.1459C110.021 16.1459 112.614 18.6541 112.928 21.7892H108.921C108.607 20.3 107.507 19.5946 106.093 19.5946C103.657 19.5946 102.714 21.3973 102.714 24.4541C102.714 27.5108 103.657 29.3919 105.936 29.3919C107.743 29.3919 108.528 28.5297 108.921 26.9622H112.85V26.8838Z"
    fill="#304295" />
  <path
    d="M123.535 32.2919V28.0595C123.535 26.5703 123.143 26.2568 122.043 26.2568H118.743V32.2919H114.814V16.6162H122.985C126.05 16.6162 127.778 18.3405 127.778 20.8486C127.778 23.1216 126.757 24.2973 125.343 24.7676C126.678 25.1595 127.464 25.8649 127.464 27.7459V32.2135H123.535V32.2919ZM122.357 23.3568C123.614 23.3568 124.164 22.7297 124.164 21.5541C124.164 20.4568 123.614 19.9081 122.357 19.9081H118.743V23.3568H122.357Z"
    fill="#304295" />
  <path
    d="M130.135 32.2919V16.6162H141.921V19.9865H134.064V22.4162H141.292V25.7865H134.064V28.8432H142.314V32.2919H130.135Z"
    fill="#304295" />
  <path
    d="M156.143 32.2919V22.7297L154.1 32.2919H150.093L148.05 22.7297V32.2135H144.278V16.5378H150.171L152.135 27.0405L154.1 16.5378H159.914V32.2135H156.143V32.2919Z"
    fill="#304295" />
  <path
    d="M162.428 32.2919V16.6162H174.214V19.9865H166.357V22.4162H173.585V25.7865H166.357V28.8432H174.607V32.2919H162.428Z"
    fill="#304295" />
  <path
    d="M185.921 32.2919L180.264 22.9649V32.2919H176.571V16.6162H180.814L185.843 25.3946V16.6162H189.614V32.2919H185.921Z"
    fill="#304295" />
  <path d="M196.136 32.2919V19.9865H191.657V16.6162H204.7V19.9865H200.143V32.2919H196.136Z" fill="#304295" />
  <path
    d="M213.028 32.2919L212.243 29.3135H207.293L206.35 32.2919H202.107L207.45 16.6162H212.164L217.428 32.2919H213.028ZM209.728 20.8486L208.314 26.0216H211.064L209.728 20.8486Z"
    fill="#304295" />
  <path d="M82.3638 52.3568V40.0514H77.8853V36.6811H90.9281V40.0514H86.371V52.3568H82.3638Z" fill="#C84278" />
  <path
    d="M100.435 36.6811H104.6V47.4189C104.6 50.9459 102.321 52.827 97.9995 52.827C93.9138 52.827 91.6353 50.8676 91.6353 47.4189V36.6811H95.721V47.027C95.721 48.5946 96.4281 49.5351 98.0781 49.5351C99.7281 49.5351 100.435 48.673 100.435 47.027V36.6811Z"
    fill="#C84278" />
  <path
    d="M125.657 46.9486C125.028 50.4757 122.436 52.9054 118.743 52.9054C114.5 52.9054 111.357 50.0838 111.357 44.754C111.357 39.4243 114.186 36.2108 118.821 36.2108C122.828 36.2108 125.421 38.7189 125.736 41.854H121.571C121.257 40.3649 120.157 39.6595 118.743 39.6595C116.307 39.6595 115.364 41.4622 115.364 44.5189C115.364 47.5757 116.307 49.4567 118.586 49.4567C120.393 49.4567 121.178 48.5946 121.571 47.027H125.657V46.9486Z"
    fill="#C84278" />
  <path
    d="M125.971 44.6757C125.971 39.3459 128.721 36.2108 133.671 36.2108C138.621 36.2108 141.371 39.4243 141.371 44.754C141.371 50.0838 138.621 52.9054 133.671 52.9054C128.8 52.9054 125.971 49.927 125.971 44.6757ZM137.443 44.754C137.443 41.4622 136.107 39.7378 133.75 39.7378C131.393 39.7378 129.978 41.3838 129.978 44.754C129.978 48.1243 131.393 49.4567 133.75 49.4567C135.635 49.4567 137.443 48.0459 137.443 44.754Z"
    fill="#C84278" />
  <path
    d="M151.664 52.3568L146.007 43.0297V52.3568H142.235V36.6811H146.478L151.507 45.4595V36.6811H155.278V52.3568H151.664Z"
    fill="#C84278" />
  <path
    d="M165.021 41.3054C165.021 39.973 164.235 39.3459 162.35 39.3459C160.857 39.3459 160.071 39.7378 160.071 40.7568C160.071 41.3838 160.464 41.9324 162.114 42.4027C167.064 43.8135 169.264 44.4405 169.264 48.1243C169.264 51.1811 166.828 52.9054 163.214 52.9054C158.343 52.9054 156.221 51.1027 156.064 47.6541H159.835C159.914 48.9081 161.171 49.6135 162.664 49.6135C164.864 49.6135 165.493 49.0649 165.493 48.0459C165.493 47.1838 164.943 46.7919 163.293 46.2432C158.264 44.6757 156.457 43.8919 156.457 40.8351C156.457 38.0919 158.421 36.1324 162.35 36.1324C166.121 36.1324 168.557 38.2486 168.793 41.3054H165.021Z"
    fill="#C84278" />
  <path
    d="M178.771 36.6811H182.935V47.4189C182.935 50.9459 180.657 52.827 176.335 52.827C172.25 52.827 169.971 50.8676 169.971 47.4189V36.6811H174.057V47.027C174.057 48.5946 174.764 49.5351 176.414 49.5351C178.064 49.5351 178.771 48.673 178.771 47.027V36.6811Z"
    fill="#C84278" />
  <path d="M183.957 52.3568V36.6811H187.964V48.8297H195.271V52.3568H183.957Z" fill="#C84278" />
  <path d="M195.9 52.3568V40.0514H191.421V36.6811H204.464V40.0514H199.907V52.3568H195.9Z" fill="#C84278" />
  <path
    d="M211.3 52.3568L210.514 49.3784H205.564L204.621 52.3568H200.378L205.721 36.6811H210.436L215.7 52.3568H211.3ZM208 40.9919L206.586 46.1649H209.336L208 40.9919Z"
    fill="#C84278" />
  <path
    d="M39.3071 42.1676C39.1499 42.2459 39.0714 42.2459 38.9142 42.0892C37.0285 39.346 32.9428 39.346 31.0571 42.0892C30.9785 42.2459 30.8999 42.2459 30.6642 42.1676C28.2285 41.0703 25.4785 42.6378 25.4785 45.2243C25.4785 45.8514 25.4785 46.4784 25.4785 47.1054C28.2285 48.5946 31.3714 49.4568 34.7499 49.4568C38.3642 49.4568 41.6642 48.4378 44.4928 46.7919C44.4928 46.2432 44.4928 45.6946 44.4928 45.1459C44.4142 42.6378 41.6642 41.0703 39.3071 42.1676Z"
    fill="white" />
  <path
    d="M34.9857 33.6243C33.3357 33.6243 32 34.8784 32 36.3676C32 37.9351 33.2571 39.1892 34.9071 39.1892C36.5571 39.1892 37.8143 38.0135 37.8929 36.4459C37.8929 34.8784 36.6357 33.6243 34.9857 33.6243Z"
    fill="white" />
  <path
    d="M40.8787 36.8378C39.6215 36.8378 38.6001 37.7784 38.6001 38.9541C38.6001 40.1297 39.6215 41.1486 40.8787 41.1486C42.1358 41.1486 43.1572 40.2081 43.1572 39.0324C43.1572 37.7784 42.1358 36.8378 40.8787 36.8378Z"
    fill="white" />
  <path
    d="M29.0925 36.8378C27.8354 36.8378 26.8139 37.7784 26.7354 39.0324C26.7354 40.2081 27.7568 41.1486 29.0139 41.1486C30.2711 41.1486 31.2925 40.2081 31.2925 39.0324C31.3711 37.8568 30.3496 36.8378 29.0925 36.8378Z"
    fill="white" />
  <path
    d="M57.2214 8.77837C57.0643 8.54324 56.6714 8.62162 56.5143 8.85675L55.3357 11.9919C55.3357 11.9919 55.3357 12.4622 55.4143 12.5405C59.1857 18.027 60.9143 25.0811 59.5 32.4486C57.4571 42.5594 49.5214 50.554 39.3857 52.5919C26.2643 55.2567 14.3214 47.8892 9.92143 36.7595C9.76429 36.3676 9.21429 36.2108 8.9 36.5243L7.01429 38.1703C6.77857 38.327 6.7 38.6405 6.85715 38.954C11.5714 50.1622 23.1214 57.7649 36.2429 56.8243C50.6214 55.8054 62.3286 44.3621 63.5857 30.0189C64.3714 21.9459 61.7786 14.5 57.2214 8.77837Z"
    fill="#E48244" />
  <path
    d="M51.9572 1.01892L43.1572 2.82162C42.2144 3.05676 41.9001 4.23243 42.6858 4.85946L43.5501 5.48648C44.1001 5.95676 44.1787 6.74054 43.6287 7.21081L26.1072 24.0622C25.6358 24.4541 25.0072 24.5324 24.5358 24.1405L18.4858 18.9676C18.0144 18.5757 17.3858 18.5757 16.9144 18.9676L1.04294 33.6243C0.571509 34.0162 0.492938 34.6432 0.807224 35.1919L2.06437 37.6216C2.37865 38.1703 3.16437 38.327 3.6358 37.8568L16.9144 25.6297C17.3858 25.2378 18.0144 25.2378 18.4858 25.6297L24.6929 31.3514C25.1644 31.7432 25.8715 31.7432 26.3429 31.3514L46.4572 11.3649C46.8501 10.973 47.4787 10.8946 47.9501 11.2081L49.1287 12.0703C49.7572 12.5405 50.7001 12.227 50.9358 11.4432L53.2929 2.42973C53.5287 1.56757 52.7429 0.783782 51.9572 1.01892Z"
    fill="#304295" />
  <path
    d="M52.9003 15.9108C52.7432 15.5973 52.2717 15.4405 51.9575 15.6757C51.4075 16.0676 50.6217 16.6162 50.4646 16.6946C49.9146 16.8513 49.0503 16.8513 48.1075 15.9108C48.0289 15.8324 47.9503 15.754 47.7932 15.5973C47.5575 15.4405 47.2432 15.4405 47.086 15.5973C45.5932 17.0081 44.1003 18.4189 42.6075 19.8297L37.3432 24.7676C33.886 28.0595 30.3503 31.4297 26.8146 34.7216C26.2646 35.2703 25.5575 35.5838 24.8503 35.5838C23.8289 35.5838 23.1217 34.9568 22.886 34.7216C21.9432 33.7811 21.0003 32.9189 20.0575 31.9784C19.2717 31.1946 18.4075 30.4108 17.6217 29.627C17.2289 29.3135 16.6789 29.3135 16.3646 29.627C15.5003 30.5676 13.8503 32.1351 13.0646 32.9189C12.8289 33.154 12.6717 33.5459 12.8289 33.9378C13.7717 36.1324 17.386 43.9703 25.4789 47.1054C25.4789 46.4784 25.4789 45.8513 25.4789 45.2243C25.4789 42.6378 28.3075 41.0703 30.6646 42.1676C30.8217 42.2459 30.9789 42.1676 31.0575 42.0892C32.9432 39.3459 36.9503 39.3459 38.9146 42.0892C38.9932 42.2459 39.1503 42.2459 39.3075 42.1676C41.6646 41.0703 44.4932 42.6378 44.4932 45.1459C44.4932 45.6946 44.4932 46.2432 44.4932 46.7919C49.6003 43.7351 52.8217 40.4432 54.786 32.527C57.0646 23.1216 54.9432 19.5946 52.9003 15.9108ZM29.0932 41.1486C27.836 41.1486 26.8146 40.1297 26.8146 39.0324C26.8146 37.8568 27.836 36.8378 29.1717 36.8378C30.4289 36.8378 31.3717 37.8568 31.3717 39.0324C31.3717 40.2081 30.3503 41.1486 29.0932 41.1486ZM34.986 39.1892C33.336 39.1892 32.0789 37.9351 32.0789 36.3676C32.0789 34.8 33.4146 33.6243 35.0646 33.6243C36.636 33.6243 37.9717 34.8784 37.9717 36.3676C37.8932 38.0135 36.636 39.1892 34.986 39.1892ZM40.8789 41.1486C39.6217 41.1486 38.6003 40.2081 38.6003 38.954C38.6003 37.7784 39.6217 36.8378 40.8789 36.8378C42.136 36.8378 43.1575 37.7784 43.1575 39.0324C43.1575 40.2081 42.136 41.1486 40.8789 41.1486Z"
    fill="#C84278" />
  <path
    d="M46.6142 24.2973H44.3356C44.0213 24.2973 43.707 24.5324 43.707 24.9243V27.1973C43.707 27.5108 43.4713 27.8243 43.0784 27.8243H40.6427C40.3284 27.8243 40.0142 28.0595 40.0142 28.4513V30.5676C40.0142 30.8811 40.2499 31.1946 40.6427 31.1946H43.0784C43.3927 31.1946 43.707 31.4297 43.707 31.8216V34.0946C43.707 34.4081 43.9427 34.7216 44.3356 34.7216H46.6142C46.9284 34.7216 47.2427 34.4865 47.2427 34.0946V31.8216C47.2427 31.5081 47.4784 31.1946 47.8713 31.1946H50.307C50.6213 31.1946 50.9356 30.9595 50.9356 30.5676V28.4513C50.9356 28.1378 50.6999 27.8243 50.307 27.8243H47.8713C47.557 27.8243 47.2427 27.5892 47.2427 27.1973V24.9243C47.2427 24.6108 46.9284 24.2973 46.6142 24.2973Z"
    fill="white" />
</svg>